<?xml version="1.0" standalone="no"?><!DOCTYPE svg PUBLIC "-//W3C//DTD SVG 1.1//EN" "http://www.w3.org/Graphics/SVG/1.1/DTD/svg11.dtd"><svg t="1589275082322" class="icon" viewBox="0 0 1024 1024" version="1.1" xmlns="http://www.w3.org/2000/svg" p-id="2179" xmlns:xlink="http://www.w3.org/1999/xlink" width="128" height="128"><defs><style type="text/css"></style></defs><path d="M717.233268 616.852046c-11.83249 0-21.399379 9.042957-21.399379 20.180622 0 45.375443-16.33606 56.20714-19.566638 58.042951l-86.693478 0c-6.507204 0-10.003841-0.917906-11.574616-1.530866L577.999157 573.965284l72.892147 0c25.157983 0 45.599548-19.300578 45.599548-43.058678l0-95.522564c0-23.711028-20.441565-43.054585-45.599548-43.054585l-41.706891 0 45.856397-67.258847c6.378268-9.390881 3.538593-21.836331-6.461155-27.867698-9.870812-6.070252-23.101137-3.319605-29.528524 6.031367l-60.746526 89.095177L489.778906 392.329457l-96.435353-97.615225c-8.036024-8.16803-21.575388-8.601912-30.176276-1.007957-8.648984 7.602142-9.128915 20.35663-1.093914 28.520567l69.227688 70.098521-53.372581 0c-25.198915 0-45.679365 19.34765-45.679365 43.058678l0 95.517447c0 23.7581 20.48045 43.063795 45.679365 43.063795l36.903491 0c-8.119935 34.195823-33.406854 100.403734-109.6227 122.592083-11.265578 3.319605-17.555841 14.5903-14.101159 25.247011 2.835581 8.643867 11.308557 14.234189 20.437471 14.234189 2.097778 0 4.234441-0.299829 6.332219-0.913812C422.345074 704.685487 450.954669 613.18861 458.509738 573.969377l76.735685 0 0 118.747521c-0.699941 7.55507 1.440815 18.035772 9.346879 26.773783 9.605775 10.56666 24.718985 15.941064 44.980447 15.941064l89.838098 0 3.715625-0.346901c5.718235-0.923022 55.466266-11.707646 55.466266-98.052177C738.592738 625.895003 729.072921 616.852046 717.233268 616.852046L717.233268 616.852046 717.233268 616.852046zM377.929492 533.61325c-1.616824 0-2.88163-1.180895-2.88163-2.707668l0-95.522564c0-1.479701 1.264806-2.659573 2.88163-2.659573l186.840362 0c1.612731 0.310062 3.14462 0.60989 4.757351 0.60989 1.744737 0 3.538593-0.218988 5.237281-0.60989l76.125795 0c1.574868 0 2.839675 1.180895 2.839675 2.659573l0 95.522564c0 1.526773-1.264806 2.707668-2.839675 2.707668L377.929492 533.61325 377.929492 533.61325 377.929492 533.61325zM514.408863 65.51104c-246.667959 0-447.350584 200.687742-447.350584 447.312722 0 246.672052 200.682625 447.312722 447.350584 447.312722 246.633167 0 447.312722-200.64067 447.312722-447.312722C961.721585 266.198781 761.04203 65.51104 514.408863 65.51104L514.408863 65.51104 514.408863 65.51104zM514.408863 913.623124c-220.98809 0-400.795269-179.807179-400.795269-400.799362S293.420773 112.066355 514.408863 112.066355c220.992183 0 400.756383 179.7642 400.756383 400.756383S735.401046 913.623124 514.408863 913.623124L514.408863 913.623124 514.408863 913.623124z" p-id="2180" fill="#707070"></path></svg>