<?xml version="1.0" standalone="no"?><!DOCTYPE svg PUBLIC "-//W3C//DTD SVG 1.1//EN" "http://www.w3.org/Graphics/SVG/1.1/DTD/svg11.dtd"><svg t="1589275168175" class="icon" viewBox="0 0 1024 1024" version="1.1" xmlns="http://www.w3.org/2000/svg" p-id="4856" xmlns:xlink="http://www.w3.org/1999/xlink" width="128" height="128"><defs><style type="text/css"></style></defs><path d="M870.260364 19.874909H153.6a130.327273 130.327273 0 0 0-130.327273 130.327273v716.8a130.327273 130.327273 0 0 0 130.327273 130.327273h716.8a130.327273 130.327273 0 0 0 130.327273-130.327273v-716.8a130.513455 130.513455 0 0 0-130.466909-130.327273z m32.581818 814.498909c0 35.979636-29.090909 65.117091-65.070546 65.117091h-651.636363c-36.026182 0-65.163636-29.137455-65.163637-65.163636v-651.636364c0-35.933091 29.137455-65.070545 65.163637-65.070545h651.496727c36.026182 0 65.163636 29.137455 65.163636 65.117091v651.636363h0.093091z m-179.2-586.426182c-26.903273 0-48.872727 21.922909-48.872727 48.872728 0 5.771636 1.210182 11.170909 2.978909 16.290909h-6.330182a162.676364 162.676364 0 0 1-159.464727 130.327272 162.909091 162.909091 0 0 1-159.604364-130.327272h-6.330182c1.861818-5.12 2.978909-10.612364 2.978909-16.290909a48.919273 48.919273 0 0 0-97.745454 0c0 5.771636 1.210182 11.170909 2.932363 16.290909h-0.744727c16.244364 128.465455 125.672727 228.072727 258.513455 228.072727a260.608 260.608 0 0 0 258.420363-228.072727h-0.791273a48.779636 48.779636 0 0 0-45.940363-65.163637z" p-id="4857"></path></svg>