<?xml version="1.0" standalone="no"?><!DOCTYPE svg PUBLIC "-//W3C//DTD SVG 1.1//EN" "http://www.w3.org/Graphics/SVG/1.1/DTD/svg11.dtd"><svg t="1589275194551" class="icon" viewBox="0 0 1024 1024" version="1.1" xmlns="http://www.w3.org/2000/svg" p-id="6414" xmlns:xlink="http://www.w3.org/1999/xlink" width="128" height="128"><defs><style type="text/css"></style></defs><path d="M513.346391 628.698897c142.545714 0 258.504445-115.971068 258.504444-258.492107s-115.971068-258.504445-258.504444-258.504445-258.504445 115.971068-258.504445 258.504445 115.95873 258.492107 258.504445 258.492107z m0-456.765621c109.333575 0 198.273514 88.939939 198.273513 198.273514s-88.939939 198.261176-198.273513 198.261176-198.273514-88.939939-198.273514-198.261176 88.939939-198.273514 198.273514-198.273514z" p-id="6415"></path><path d="M790.048423 615.744682a368.615272 368.615272 0 0 0 93.49242-245.513217C883.528506 166.073036 717.45547 0 513.346391 0s-370.120428 166.073036-370.120429 370.194453A368.565923 368.565923 0 0 0 236.237226 615.263526L144.521384 816.572027a42.391126 42.391126 0 0 0 46.758547 59.589388l115.625622-23.354599 55.801823 103.942154a42.132042 42.132042 0 0 0 37.320477 22.367611h1.135036c16.137251-0.431807 30.411562-9.746505 36.777633-23.342261l24.538985-47.511126 19.974165 80.846639a44.944957 44.944957 0 0 0 33.434212 33.656284 45.648186 45.648186 0 0 0 10.659469 1.233735 44.895608 44.895608 0 0 0 34.384188-16.038552l96.638443-114.342538 137.438053 59.515365a45.179367 45.179367 0 0 0 61.921148-51.81686zM513.346391 60.243268c170.909276 0 309.951184 139.054245 309.951184 309.963522s-139.041908 309.938847-309.951184 309.938847S203.395207 541.103729 203.395207 370.20679 342.437114 60.243268 513.346391 60.243268z m-113.626972 838.199397l-46.042981-85.793915a42.045681 42.045681 0 0 0-45.746885-21.503997l-94.368372 19.061202 68.805388-151.009135A369.133441 369.133441 0 0 0 417.929344 727.903509l22.626696 91.592469z m271.545021-64.56134a45.031319 45.031319 0 0 0-52.433727 12.337348l-84.856277 100.364323L482.712757 739.007122c10.116625 0.826602 20.307274 1.369446 30.633634 1.369446a368.20814 368.20814 0 0 0 225.933847-77.244134l52.223992 222.824836z" p-id="6416"></path></svg>