<?xml version="1.0" standalone="no"?><!DOCTYPE svg PUBLIC "-//W3C//DTD SVG 1.1//EN" "http://www.w3.org/Graphics/SVG/1.1/DTD/svg11.dtd"><svg t="1589275182203" class="icon" viewBox="0 0 1603 1024" version="1.1" xmlns="http://www.w3.org/2000/svg" p-id="5625" xmlns:xlink="http://www.w3.org/1999/xlink" width="200.375" height="128"><defs><style type="text/css"></style></defs><path d="M801.23724 0C518.930425 0 289.23724 229.693184 289.23724 512s229.693184 512 512 512c282.311824 0 512-229.693184 512-512S1083.549065 0 801.23724 0zM801.23724 960.000939c-247.04241 0-447.995931-200.963537-447.995931-448.000939 0-247.04241 200.95352-448.000939 447.995931-448.000939S1249.23818 264.95759 1249.23818 512C1249.23818 759.037402 1048.279651 960.000939 801.23724 960.000939z" p-id="5626"></path><path d="M801.23724 409.832892c-22.665682 0-43.835093-2.909902-63.543293-8.725949-19.689418-5.796014-35.216825-14.408021-46.594742-25.773417l0 34.499367c0 9.338231 4.933311 17.999071 14.782402 25.975007 9.841579 7.977188 23.235392 14.292827 40.150136 18.975716 16.914744 4.659099 35.315742 6.996787 55.205498 6.996787 19.879739 0 38.290753-2.337688 55.196733-6.996787 16.914744-4.659099 30.308557-10.998528 40.1589-18.975716 9.840327-7.975936 14.773637-16.638028 14.773637-25.975007l0-34.499367c-11.369152 11.364144-26.920349 19.953613-46.61102 25.773417C845.064821 406.925495 823.894158 409.832892 801.23724 409.832892z" p-id="5627"></path><path d="M911.366511 531.161028c-11.369152 11.365396-26.920349 19.956117-46.61102 25.772165-19.69067 5.8173-40.860082 8.728454-63.516999 8.728454-22.665682 0-43.835093-2.909902-63.543293-8.728454-19.689418-5.816048-35.216825-14.382979-46.594742-25.748375l0 34.49561c0 9.340735 4.933311 18.000323 14.782402 25.977511 9.841579 7.974684 23.235392 14.292827 40.150136 18.975716 16.914744 4.659099 35.315742 6.976753 55.205498 6.976753 19.879739 0 38.290753-2.341444 55.196733-7.000543 16.914744-4.680384 30.308557-10.998528 40.1589-18.973212 9.840327-7.97844 14.773637-16.635524 14.773637-25.975007L911.367763 531.161028z" p-id="5628"></path><path d="M705.86533 357.904165c9.840327 7.999726 23.235392 14.320374 40.150136 18.979472 16.931021 4.659099 35.332019 6.976753 55.221775 6.976753 19.879739 0 38.290753-2.342696 55.196733-7.000543 16.914744-4.659099 30.308557-10.998528 40.1589-18.975716 9.840327-7.97844 14.773637-16.634272 14.773637-25.975007l0-21.514994c0-9.339483-4.932058-17.996566-14.773637-25.973755-9.850344-7.975936-23.244156-14.296584-40.1589-18.975716-16.905979-4.659099-35.316994-7.000543-55.196733-7.000543-19.889756 0-38.290753 2.341444-55.221775 7.000543-16.914744 4.679132-30.309809 10.998528-40.150136 18.975716-9.849091 7.977188-14.774889 16.634272-14.774889 25.97125l0 21.540036C691.09044 341.269893 696.016238 349.928229 705.86533 357.904165z" p-id="5629"></path><path d="M864.771769 479.029459c-19.706948 5.8173-40.876359 8.729706-63.534528 8.729706-22.665682 0-43.835093-2.911154-63.542041-8.729706-19.691922-5.818552-35.218077-14.404265-46.595994-25.769661l0 34.499367c0 9.339483 4.933311 17.996566 14.782402 25.973755 9.841579 7.974684 23.235392 14.294079 40.150136 18.974464 16.931021 4.659099 35.332019 7.000543 55.221775 7.000543 19.879739 0 38.281989-2.341444 55.196733-7.000543 16.913492-4.659099 30.308557-10.99978 40.1589-18.974464 9.840327-7.977188 14.774889-16.635524 14.774889-25.973755l0-34.499367C900.013636 464.625194 884.462439 473.213411 864.771769 479.029459z" p-id="5630"></path><path d="M801.23724 642.725216c-22.665682 0-43.835093-2.909902-63.543293-8.725949-19.689418-5.796014-35.216825-14.408021-46.594742-25.773417l0 34.499367c0 9.338231 4.933311 17.999071 14.782402 25.975007 9.841579 7.977188 23.235392 14.292827 40.150136 18.975716 16.914744 4.659099 35.315742 6.996787 55.205498 6.996787 19.879739 0 38.290753-2.337688 55.196733-6.996787 16.914744-4.659099 30.308557-10.998528 40.1589-18.975716 9.840327-7.975936 14.773637-16.638028 14.773637-25.975007l0-34.499367c-11.369152 11.364144-26.920349 19.953613-46.61102 25.773417C845.064821 639.817818 823.894158 642.725216 801.23724 642.725216z" p-id="5631"></path><path d="M801.23724 720.651488c-22.665682 0-43.835093-2.911154-63.542041-8.729706-19.691922-5.818552-35.218077-14.404265-46.595994-25.769661l0 34.499367c0 9.339483 4.933311 17.996566 14.782402 25.973755 9.841579 7.974684 23.235392 14.294079 40.150136 18.974464 16.931021 4.659099 35.332019 7.000543 55.221775 7.000543 19.879739 0 38.281989-2.341444 55.196733-7.000543 16.913492-4.659099 30.308557-10.99978 40.1589-18.974464 9.840327-7.977188 14.774889-16.635524 14.774889-25.973755l0-34.499367c-11.370404 11.365396-26.921601 19.953613-46.612272 25.769661C845.064821 717.740334 823.894158 720.651488 801.23724 720.651488z" p-id="5632"></path><path d="M801.23724 798.552718c-22.665682 0-43.835093-2.909902-63.543293-8.728454-19.689418-5.816048-35.216825-14.382979-46.594742-25.748375l0 34.49561c0 9.340735 4.933311 18.000323 14.782402 25.977511 9.841579 7.974684 23.235392 14.292827 40.150136 18.975716 16.914744 4.659099 35.315742 6.976753 55.205498 6.976753 19.879739 0 38.290753-2.341444 55.196733-7.000543 16.914744-4.680384 30.308557-10.998528 40.1589-18.973212 9.840327-7.97844 14.773637-16.635524 14.773637-25.975007l0-34.499367c-11.369152 11.365396-26.920349 19.956117-46.61102 25.772165C845.064821 795.642816 823.894158 798.552718 801.23724 798.552718z" p-id="5633"></path><path d="M465.847252 496.296046c-8.431704 6.829004-12.648808 14.240239-12.648808 22.234956l0 18.441065c0 7.993466 4.217104 15.407205 12.648808 22.234956 8.425443 6.849038 19.89226 12.259402 34.374156 16.248622 14.494417 3.987968 30.248456 5.972561 47.277142 5.972561 17.019921 0 32.781473-2.005879 47.255856-5.992595 14.480644-3.98922 25.94746-9.415862 34.380416-16.244866 8.425443-6.831508 12.647556-14.241491 12.647556-22.238713l0-18.419779c0-7.99597-4.223365-15.407205-12.647556-22.236208-8.432956-6.829004-19.899773-12.239368-34.380416-16.244866-14.473131-3.987968-30.235935-5.992595-47.255856-5.992595-17.028686 0-32.781473 2.004627-47.277142 5.992595C485.739512 484.056678 474.272696 489.468294 465.847252 496.296046M453.205957 640.844548 453.205957 670.379301c0 7.99597 4.224617 15.407205 12.65632 22.237461 8.425443 6.827752 19.89226 12.238116 34.374156 16.244866 14.494417 3.98922 30.248456 5.993847 47.277142 5.993847 17.019921 0 32.77396-2.004627 47.255856-5.993847 14.480644-3.987968 25.94746-9.417114 34.380416-16.244866 8.425443-6.829004 12.648808-14.242743 12.648808-22.237461l0-29.536005c-9.73515 9.730141-23.047575 17.082527-39.905974 22.062165-16.87092 4.980891-34.995202 7.47384-54.392879 7.47384-19.403937 0-37.528219-2.49295-54.400391-7.47384C476.239759 657.925822 462.946115 650.574689 453.205957 640.844548M453.205957 707.556929l0 29.532249c0 7.997222 4.224617 15.410961 12.65632 22.239965 8.425443 6.827752 19.89226 12.236864 34.374156 16.244866 14.480644 3.987968 30.234682 5.972561 47.262116 5.972561 17.019921 0 32.781473-2.004627 47.255856-5.992595 14.480644-4.00675 25.94746-9.415862 34.380416-16.243614 8.425443-6.830256 12.647556-14.242743 12.647556-22.238713l0-29.536005c-9.733897 9.730141-23.046323 17.085031-39.904722 22.063417-16.857147 4.980891-34.981429 7.472588-54.379105 7.472588-19.403937 0-37.528219-2.491697-54.401643-7.472588C476.239759 724.621927 462.946115 717.287071 453.205957 707.556929M453.205957 574.129662l0 29.536005c0 7.994718 4.224617 15.409709 12.65632 22.238713 8.425443 6.829004 19.89226 12.236864 34.374156 16.244866 14.480644 3.987968 30.234682 5.990091 47.262116 5.990091 17.019921 0 32.781473-2.000871 47.255856-5.990091 14.480644-3.987968 25.94746-9.415862 34.380416-16.244866 8.425443-6.829004 12.647556-14.243995 12.647556-22.238713L641.782378 574.129662c-9.733897 9.730141-23.046323 17.082527-39.904722 22.064669-16.857147 4.980891-34.981429 7.470084-54.379105 7.470084-19.403937 0-37.528219-2.491697-54.401643-7.470084C476.239759 591.232222 462.946115 583.859803 453.205957 574.129662" p-id="5634"></path><path d="M973.325886 490.937018c-8.431704 6.829004-12.648808 14.241491-12.648808 22.234956l0 18.441065c0 7.993466 4.217104 15.407205 12.648808 22.234956 8.425443 6.849038 19.89226 12.259402 34.374156 16.248622 14.494417 3.987968 30.248456 5.972561 47.277142 5.972561 17.019921 0 32.781473-2.005879 47.255856-5.992595 14.480644-3.98922 25.94746-9.415862 34.380416-16.244866 8.425443-6.831508 12.647556-14.241491 12.647556-22.238713l0-18.419779c0-7.99597-4.222112-15.407205-12.647556-22.236208-8.432956-6.829004-19.899773-12.239368-34.380416-16.244866-14.474383-3.987968-30.235935-5.992595-47.255856-5.992595-17.028686 0-32.781473 2.004627-47.277142 5.992595C993.218146 478.69765 981.751329 484.108014 973.325886 490.937018M960.684591 635.484268l0 29.536005c0 7.99597 4.223365 15.407205 12.65632 22.237461 8.425443 6.8265 19.89226 12.238116 34.374156 16.244866 14.494417 3.98922 30.248456 5.993847 47.277142 5.993847 17.019921 0 32.77396-2.004627 47.255856-5.993847 14.480644-3.987968 25.94746-9.417114 34.380416-16.244866 8.425443-6.829004 12.648808-14.242743 12.648808-22.237461l0-29.536005c-9.73515 9.730141-23.047575 17.082527-39.905974 22.062165-16.87092 4.980891-34.995202 7.47384-54.392879 7.47384-19.403937 0-37.529471-2.49295-54.400391-7.47384C983.718393 652.565543 970.424749 645.214409 960.684591 635.484268M960.684591 702.197902l0 29.532249c0 7.997222 4.223365 15.410961 12.65632 22.239965 8.425443 6.827752 19.89226 12.236864 34.374156 16.244866 14.480644 3.987968 30.234682 5.972561 47.262116 5.972561 17.019921 0 32.781473-2.004627 47.255856-5.992595 14.480644-4.00675 25.94746-9.415862 34.380416-16.243614 8.425443-6.830256 12.647556-14.242743 12.647556-22.238713l0-29.536005c-9.733897 9.730141-23.046323 17.085031-39.904722 22.063417-16.857147 4.980891-34.981429 7.472588-54.379105 7.472588-19.403937 0-37.529471-2.491697-54.401643-7.472588C983.718393 719.261647 970.424749 711.926791 960.684591 702.197902M960.684591 568.769382l0 29.536005c0 7.994718 4.223365 15.409709 12.65632 22.238713 8.425443 6.829004 19.89226 12.236864 34.374156 16.244866 14.480644 3.987968 30.234682 5.990091 47.262116 5.990091 17.019921 0 32.781473-2.000871 47.255856-5.990091 14.480644-3.987968 25.94746-9.415862 34.380416-16.244866 8.425443-6.829004 12.647556-14.243995 12.647556-22.238713l0-29.536005c-9.733897 9.730141-23.046323 17.082527-39.904722 22.064669-16.857147 4.980891-34.981429 7.470084-54.379105 7.470084-19.403937 0-37.529471-2.491697-54.401643-7.470084C983.718393 585.871942 970.424749 578.499523 960.684591 568.769382" p-id="5635"></path></svg>