<?xml version="1.0" standalone="no"?><!DOCTYPE svg PUBLIC "-//W3C//DTD SVG 1.1//EN" "http://www.w3.org/Graphics/SVG/1.1/DTD/svg11.dtd"><svg t="1589275122008" class="icon" viewBox="0 0 1024 1024" version="1.1" xmlns="http://www.w3.org/2000/svg" p-id="2718" xmlns:xlink="http://www.w3.org/1999/xlink" width="128" height="128"><defs><style type="text/css"></style></defs><path d="M903.33 785.57c2.856 9.809 5.39 22.312 7.599 37.349 2.102 15.036 3.287 30.342 3.287 45.702 0 15.468-1.24 30.02-3.772 43.817-2.533 13.69-6.414 23.875-11.372 30.935-3.557 4.959-12.72 9.702-27.486 14.229-14.821 4.527-33.361 8.838-55.674 12.611-22.312 3.88-47.157 7.6-74.536 11.048s-54.757 6.522-82.082 8.947c-27.27 2.425-54.002 4.204-79.764 5.282-26.085 1.024-48.775 1.563-68.177 1.563s-41.876-0.755-67.476-2.102c-25.546-1.348-51.847-3.18-78.794-5.282-27.001-2.102-53.84-4.635-80.465-7.384-26.624-2.856-50.93-5.982-72.92-9.485-21.935-3.45-40.69-6.845-56.158-10.024-15.521-3.072-25.007-6.522-28.618-10.025-6.467-4.958-11.533-20.534-15.09-46.727-3.665-26.408-2.156-60.631 4.311-102.615 3.611-23.876 13.528-42.092 29.696-54.757 16.222-12.612 34.87-22.528 56.158-30.02 21.235-7.383 43.547-13.904 66.938-19.456s43.708-14.012 61.062-25.276c13.636-8.3 24.253-16.438 31.852-24.199 7.546-7.707 12.881-15.36 16.115-23.175 3.233-7.707 4.904-15.79 4.904-24.09 0-8.408-0.377-17.894-1.078-28.403-1.455-15.468-6.629-27.379-15.63-35.786A1238.871 1238.871 0 0 0 336.41 512c-5.766-4.204-10.616-10.294-14.605-18.432-3.934-8.03-7.706-16.276-11.371-24.684-3.557-9.108-6.737-19.294-9.647-30.558-1.456-1.347-3.611-3.827-6.468-7.33-2.156-3.503-4.743-8.246-7.599-14.228-2.856-5.982-6.09-14.552-9.755-25.762-3.557-11.21-5.874-21.234-6.952-29.965-1.132-8.785-0.97-16.33 0.485-22.636 0.754-7.707 2.479-14.39 5.39-19.995 0-24.576 1.454-49.098 4.31-73.674 2.911-20.318 7.546-42.415 14.121-66.29 6.468-23.822 16.87-45.218 31.26-64.135 12.988-17.57 27-32.122 42.145-43.709 15.09-11.587 30.774-20.48 46.942-26.84 16.222-6.305 32.553-10.67 49.152-13.15 16.6-2.425 32.39-3.665 47.535-3.665 16.546 1.402 30.074 3.342 40.475 5.767 10.456 2.48 18.971 5.497 25.385 8.947 6.413 3.503 12.018 7.707 16.76 12.665 4.582 4.904 9.54 9.809 14.606 14.713h20.426c6.522 0 12.827 0.862 18.971 2.641 6.198 1.725 12.235 5.066 18.325 9.97 6.09 4.905 12.827 11.965 19.995 21.073 16.653 21.02 28.833 43.978 36.756 68.878s13.69 48.559 17.246 71.033c3.557 25.977 5.767 51.577 6.521 76.8 1.348 3.503 2.426 7.76 3.288 12.665 0.754 4.905 1.132 10.887 1.563 17.893 0.323 7.007-0.216 15.792-1.563 26.301-1.455 14.013-3.665 25.061-6.521 33.145-2.965 8.085-6.09 14.229-9.81 18.378-3.556 4.959-7.598 8.462-11.802 10.51-2.964 11.264-6.198 21.45-9.701 30.558-3.665 8.408-7.492 16.654-11.372 24.738-3.988 8.084-8.946 14.228-14.605 18.378-12.235 9.809-22.313 18-30.235 24.738-7.977 6.629-13.366 17.947-16.33 34.061-2.102 9.917-2.75 19.672-2.102 29.588 0.754 9.81 3.449 19.78 8.084 29.912 4.743 10.186 12.342 19.887 22.636 28.941 10.51 9.163 25.06 17.247 43.87 24.307 16.546 6.198 34.654 12.018 54.434 17.246 19.887 5.282 38.858 11.156 57.29 17.893 18.432 6.63 34.762 15.253 49.152 25.816s24.414 24.253 30.235 41.068zM556.679 750.86c2.102-4.203 2.317-8.623 0.539-13.15s-4.527-8.946-7.977-13.15c-3.665-4.204-7.976-8.731-13.042-13.69h-49.691c-5.066 4.959-9 9.486-11.91 13.69-2.857 3.45-5.175 7.383-7.007 11.587-1.779 4.204-1.617 8.084 0.539 11.588 5.066 9.916 9.377 18.432 12.934 25.815 3.611 7.384 7.653 13.15 11.965 17.246-1.455 6.414-3.665 15.253-6.521 26.948-2.91 11.48-5.551 23.498-8.03 35.678-2.534 12.342-4.69 23.876-6.522 34.762-1.778 10.94-2.695 19.133-2.695 24.738 0 3.45 1.617 7.707 4.851 12.611s7.006 10.025 11.372 15.253c4.311 5.281 8.785 9.593 13.473 13.15 4.743 3.45 8.84 5.282 12.396 5.282 3.611 0 7.869-1.779 12.935-5.282 5.066-3.557 9.917-7.6 14.552-12.126 4.796-4.528 8.73-9.486 11.964-14.714 3.18-5.281 4.85-9.593 4.85-13.15 0-4.204-1.131-11.372-3.287-21.45-2.102-10.186-4.42-21.558-7.06-34.331-2.533-12.611-5.12-24.846-8.084-36.756-2.857-11.911-5.39-21.45-7.6-28.403 4.312-3.45 8.516-8.515 12.504-15.252 3.934-6.683 8.785-15.63 14.552-26.894z" p-id="2719" fill="#707070"></path></svg>